<?xml version="1.0" encoding="utf-8"?>
<!-- Generator: Adobe Illustrator 23.0.3, SVG Export Plug-In . SVG Version: 6.00 Build 0)  -->
<svg version="1.1" id="Capa_1" xmlns="http://www.w3.org/2000/svg" xmlns:xlink="http://www.w3.org/1999/xlink" x="0px" y="0px"
	 viewBox="0 0 1407.4 497" style="enable-background:new 0 0 1407.4 497;" xml:space="preserve">
<style type="text/css">
	.st0{fill:#18BA60;}
	.st1{fill:#FFFFFF;}
	.st2{font-family:'OpenSans-Bold';}
	.st3{font-size:186px;}
</style>
<title>Recurso 1</title>
<g>
	<g>
		<path class="st0" d="M441.6,213.7h-90c-4.5-0.1-8.2,3.2-8.4,7.4s3.4,7.7,7.9,7.9c0.2,0,0.4,0,0.5,0h75.1l23.9,205.9H33.6
			l28.1-205.9h75.3c4.5,0.1,8.2-3.2,8.4-7.4c0.1-4.2-3.4-7.7-7.9-7.9c-0.2,0-0.4,0-0.5,0H47.1L14.8,450.1h454.2L441.6,213.7z"/>
		<path class="st1" d="M234.9,335.4c-1.2,0.7-2.5,1.2-3.7,1.9c-1.8,1.1-3.6,2.2-5.3,3.4c-3.6,2.4-4.5,7.2-1.9,10.6
			c0,0,0.1,0.1,0.1,0.1c2.7,3.4,7.9,4.1,11.6,1.6c1.5-1,3-2,4.5-2.9c2.7-1.6,5.5-3.1,8.4-4.4c3.8-1.8,5.5-6,3.8-9.7
			c0.1-0.1,0.1-0.1,0.2-0.2c14.9-14.6,65.3-69.4,86.1-160.6c4.2-18.5,5.2-36.3,2.8-52.8c-7.1-50.2-40.8-76.7-97.5-76.7
			s-90.4,26.5-97.5,76.7c-2.3,16.5-1.4,34.3,2.8,52.8C169.9,265.6,219.4,320.1,234.9,335.4z M162.8,124.4
			C168.9,81.8,195.4,61,244,61s75.1,20.7,81.2,63.4c2.1,14.8,1.2,30.8-2.6,47.6c-18.8,82-63.4,134-78.6,149.8
			c-15.2-15.8-59.8-67.9-78.6-149.8C161.6,155.3,160.7,139.2,162.8,124.4z"/>
		<path class="st1" d="M244,190.1c33.4,0,60.7-25.1,60.7-56s-27.2-56-60.7-56s-60.7,25.1-60.7,56S210.5,190.1,244,190.1z M244,93.3
			c24.3,0,44.1,18.3,44.1,40.8c0,22.5-19.8,40.8-44.1,40.8s-44.1-18.3-44.1-40.8C199.8,111.6,219.7,93.3,244,93.3L244,93.3z"/>
		<path class="st1" d="M274.3,321.6c-4.4,0.8-7.3,4.8-6.4,9c0,0,0,0.1,0,0.1c0.8,3.5,4.2,6,8.1,6c0.6,0,1.2-0.1,1.7-0.2
			c4.8-0.9,10.1-1.7,15.6-2.4c4.5-0.5,7.6-4.3,7-8.5s-4.6-7.1-9.1-6.6l0,0C285.3,319.7,279.6,320.6,274.3,321.6z"/>
		<path class="st1" d="M317,324.7c0.2,4.1,3.8,7.3,8.2,7.3h0.4l16.5-0.6c4.5-0.2,8-3.7,7.9-7.9c0,0,0,0,0,0
			c-0.4-4.2-4.1-7.4-8.6-7.3l-16.5,0.6C320.4,317,316.9,320.5,317,324.7C317,324.7,317,324.7,317,324.7z"/>
		<path class="st1" d="M200,359.8c-4.2,3-8.6,5.8-13,8.4c-3.8,2.2-4.9,6.9-2.5,10.4c0,0,0.1,0.1,0.1,0.1c2.5,3.5,7.6,4.5,11.4,2.2
			c4.7-2.8,9.4-5.9,14-9.1c3.6-2.5,4.3-7.2,1.7-10.6c0,0-0.1-0.1-0.1-0.1C208.8,358,203.7,357.3,200,359.8z"/>
		<path class="st1" d="M384.1,309.5c-2.8,1.8-6.4,3.1-11.1,4c-4.4,0.8-7.3,4.8-6.4,8.9c0,0,0,0.1,0,0.1c0.8,3.6,4.2,6.1,8.1,6.1
			c0.6,0,1.1-0.1,1.7-0.2c6.9-1.3,12.6-3.4,17.3-6.5l1.1-0.7c3.6-2.5,4.3-7.2,1.7-10.6c0,0-0.1-0.1-0.1-0.1c-2.8-3.4-7.9-4-11.6-1.5
			L384.1,309.5z"/>
		<path class="st1" d="M88,369.2c1.2-4.1-1.4-8.2-5.7-9.3c0,0-0.1,0-0.1,0c-4.4-1.1-8.9,1.3-10.1,5.4c-1,3.5-1.7,7.1-1.9,10.7
			c0,0.9-0.1,1.8-0.1,2.7c0,1.5,0.1,3,0.2,4.5c0.5,3.9,4,6.8,8.2,6.8c0.3,0,0.6,0,0.9,0c4.5-0.4,7.8-4.2,7.3-8.4c0,0,0,0,0,0
			c-0.1-1-0.2-2-0.2-3c0-0.6,0-1.3,0.1-1.9C86.8,374.1,87.3,371.6,88,369.2z"/>
		<path class="st1" d="M383.9,250.3c-6.6-0.8-13.3-0.3-19.7,1.4c-4.3,1.1-6.9,5.2-5.7,9.3c0,0,0,0.1,0,0.1c1,3.3,4.3,5.6,7.9,5.6
			c0.8,0,1.5-0.1,2.3-0.3c4.2-1.1,8.6-1.4,13-0.9c4.5,0.6,8.6-2.3,9.2-6.5C391.4,254.7,388.3,250.8,383.9,250.3L383.9,250.3z"/>
		<path class="st1" d="M400.3,288c-1.3,4.1,1.2,8.4,5.5,9.6c0.8,0.2,1.6,0.3,2.3,0.3c3.6,0,6.8-2.2,7.9-5.4c0.8-2.4,1.3-4.8,1.5-7.3
			c0-0.6,0.1-1.3,0.1-1.9c0-3.6-0.7-7.2-2.1-10.6c-1.6-4-6.4-6-10.6-4.5c-4.2,1.4-6.4,5.7-4.9,9.7c0,0,0,0.1,0,0.1
			c0.7,1.7,1.1,3.5,1.1,5.3v0.9C401,285.5,400.7,286.8,400.3,288z"/>
		<path class="st1" d="M159.2,382.6c-4.8,2.1-9.8,4.1-14.6,5.8c-4.2,1.5-6.3,5.8-4.8,9.8c0,0,0,0.1,0,0.1c1.7,3.9,6.4,5.9,10.7,4.4
			c5.2-1.9,10.5-4,15.7-6.2c4.1-1.7,5.9-6.2,4-10c0,0,0-0.1-0.1-0.1C168.2,382.4,163.3,380.8,159.2,382.6z"/>
		<path class="st1" d="M99.1,350.9c1.4,0,2.7-0.3,3.9-0.9c2.3-1.2,4.9-1.9,7.5-2.2c1.1-0.1,2.2-0.1,3.3,0c4.4,0.6,8.5-2.4,9.1-6.5
			c0.6-4.2-2.5-8-7-8.6c-2.4-0.3-4.9-0.3-7.4-0.1c-4.8,0.5-9.4,1.8-13.6,4c-3.9,1.9-5.4,6.5-3.4,10.2c0,0,0.1,0.1,0.1,0.1
			C93.3,349.3,96,350.9,99.1,350.9z"/>
		<path class="st1" d="M97.3,410.7c1.8,0.4,3.6,0.7,5.4,0.9c2.1,0.2,4.2,0.4,6.3,0.4c2.6,0,5.2-0.2,7.8-0.5c4.5-0.5,7.7-4.3,7.2-8.5
			c0,0,0,0,0-0.1c-0.6-4.2-4.7-7.2-9.2-6.6c-3.3,0.4-6.7,0.5-10,0.1c-1.1-0.1-2.2-0.3-3.3-0.6c-4.4-1.1-8.9,1.3-10.1,5.5
			C90.3,405.4,92.9,409.6,97.3,410.7C97.3,410.7,97.3,410.7,97.3,410.7z"/>
	</g>
	<text transform="matrix(1 0 0 1 510.09 390.69)" class="st1 st2 st3">LISTINGO</text>
</g>
</svg>
